HIERARCHY
ROOT hip
{
  OFFSET 0 0 0
  CHANNELS 6 Xposition Yposition Zposition Zrotation Yrotation Xrotation
  JOINT abdomen
  {
    OFFSET 0 20.6881 -0.73152
    CHANNELS 3 Zrotation Xrotation Yrotation
    JOINT chest
    {
      OFFSET 0 11.7043 -0.48768
      CHANNELS 3 Zrotation Xrotation Yrotation
      JOINT neck
      {
        OFFSET 0 22.1894 -2.19456
        CHANNELS 3 Zrotation Xrotation Yrotation
        JOINT head
        {
          OFFSET -0.24384 7.07133 1.2192
          CHANNELS 3 Zrotation Xrotation Yrotation
          JOINT leftEye
          {
            OFFSET 4.14528 8.04674 8.04672
            CHANNELS 3 Zrotation Xrotation Yrotation
            End Site
            {
              OFFSET 1 0 0
            }
          }
          JOINT rightEye
          {
            OFFSET -3.6576 8.04674 8.04672
            CHANNELS 3 Zrotation Xrotation Yrotation
            End Site
            {
              OFFSET 1 0 0
            }
          }
        }
      }
      JOINT rCollar
      {
        OFFSET -2.68224 19.2634 -4.8768
        CHANNELS 3 Zrotation Xrotation Yrotation
        JOINT rShldr
        {
          OFFSET -8.77824 -1.95073 1.46304
          CHANNELS 3 Zrotation Xrotation Yrotation
          JOINT rForeArm
          {
            OFFSET -28.1742 -1.7115 0.48768
            CHANNELS 3 Zrotation Xrotation Yrotation
            JOINT rHand
            {
              OFFSET -22.5879 0.773209 7.07136
              CHANNELS 3 Zrotation Xrotation Yrotation
              JOINT rThumb1
              {
                OFFSET -1.2192 -0.487915 3.41376
                CHANNELS 3 Zrotation Xrotation Yrotation
                JOINT rThumb2
                {
                  OFFSET -3.37035 -0.52449 3.41376
                  CHANNELS 3 Zrotation Xrotation Yrotation
                  End Site
                  {
                    OFFSET -1.78271 -1.18214 1.43049
                  }
                }
              }
              JOINT rIndex1
              {
                OFFSET -7.75947 0.938293 5.60832
                CHANNELS 3 Zrotation Xrotation Yrotation
                JOINT rIndex2
                {
                  OFFSET -2.54057 -0.884171 1.56538
                  CHANNELS 3 Zrotation Xrotation Yrotation
                  End Site
                  {
                    OFFSET -1.62519 -0.234802 1.16502
                  }
                }
              }
              JOINT rMid1
              {
                OFFSET -8.24714 1.18213 3.41376
                CHANNELS 3 Zrotation Xrotation Yrotation
                JOINT rMid2
                {
                  OFFSET -3.10165 -0.590103 1.0647
                  CHANNELS 3 Zrotation Xrotation Yrotation
                  End Site
                  {
                    OFFSET -2.48547 -0.328903 0.83742
                  }
                }
              }
              JOINT rRing1
              {
                OFFSET -8.82822 0.546677 1.51678
                CHANNELS 3 Zrotation Xrotation Yrotation
                JOINT rRing2
                {
                  OFFSET -2.60934 -0.819778 -0.0198488
                  CHANNELS 3 Zrotation Xrotation Yrotation
                  End Site
                  {
                    OFFSET -2.33842 -0.294052 0.168128
                  }
                }
              }
              JOINT rPinky1
              {
                OFFSET -8.27202 -0.0477905 -0.4584
                CHANNELS 3 Zrotation Xrotation Yrotation
                JOINT rPinky2
                {
                  OFFSET -1.82734 -0.647385 -0.700984
                  CHANNELS 3 Zrotation Xrotation Yrotation
                  End Site
                  {
                    OFFSET -1.69225 -0.51767 -0.607171
                  }
                }
              }
            }
          }
        }
      }
      JOINT lCollar
      {
        OFFSET 2.68224 19.2634 -4.8768
        CHANNELS 3 Zrotation Xrotation Yrotation
        JOINT lShldr
        {
          OFFSET 8.77824 -1.95073 1.46304
          CHANNELS 3 Zrotation Xrotation Yrotation
          JOINT lForeArm
          {
            OFFSET 28.1742 -1.7115 0.48768
            CHANNELS 3 Zrotation Xrotation Yrotation
            JOINT lHand
            {
              OFFSET 22.5879 0.773209 7.07136
              CHANNELS 3 Zrotation Xrotation Yrotation
              JOINT lThumb1
              {
                OFFSET 1.2192 -0.487915 3.41376
                CHANNELS 3 Zrotation Xrotation Yrotation
                JOINT lThumb2
                {
                  OFFSET 3.37035 -0.52449 3.41376
                  CHANNELS 3 Zrotation Xrotation Yrotation
                  End Site
                  {
                    OFFSET 1.78271 -1.18214 1.43049
                  }
                }
              }
              JOINT lIndex1
              {
                OFFSET 7.75947 0.938293 5.60832
                CHANNELS 3 Zrotation Xrotation Yrotation
                JOINT lIndex2
                {
                  OFFSET 2.54057 -0.884171 1.56538
                  CHANNELS 3 Zrotation Xrotation Yrotation
                  End Site
                  {
                    OFFSET 1.62519 -0.234802 1.16502
                  }
                }
              }
              JOINT lMid1
              {
                OFFSET 8.24714 1.18213 3.41376
                CHANNELS 3 Zrotation Xrotation Yrotation
                JOINT lMid2
                {
                  OFFSET 3.10165 -0.590103 1.0647
                  CHANNELS 3 Zrotation Xrotation Yrotation
                  End Site
                  {
                    OFFSET 2.48547 -0.328903 0.83742
                  }
                }
              }
              JOINT lRing1
              {
                OFFSET 8.82822 0.546677 1.51678
                CHANNELS 3 Zrotation Xrotation Yrotation
                JOINT lRing2
                {
                  OFFSET 2.60934 -0.819778 -0.0198488
                  CHANNELS 3 Zrotation Xrotation Yrotation
                  End Site
                  {
                    OFFSET 2.33842 -0.294052 0.168128
                  }
                }
              }
              JOINT lPinky1
              {
                OFFSET 8.27202 -0.0477905 -0.4584
                CHANNELS 3 Zrotation Xrotation Yrotation
                JOINT lPinky2
                {
                  OFFSET 1.82734 -0.647385 -0.700984
                  CHANNELS 3 Zrotation Xrotation Yrotation
                  End Site
                  {
                    OFFSET 1.69225 -0.51767 -0.607171
                  }
                }
              }
            }
          }
        }
      }
    }
  }
  JOINT rButtock
  {
    OFFSET -8.77824 4.35084 1.2192
    CHANNELS 3 Zrotation Xrotation Yrotation
    JOINT rThigh
    {
      OFFSET 0 -1.70687 -2.19456
      CHANNELS 3 Zrotation Xrotation Yrotation
      JOINT rShin
      {
        OFFSET 0 -36.8199 0.73152
        CHANNELS 3 Zrotation Xrotation Yrotation
        JOINT rFoot
        {
          OFFSET 0.73152 -45.1104 -5.12064
          CHANNELS 3 Zrotation Xrotation Yrotation
          End Site
          {
            OFFSET -1.1221 -3.69964 12.103
          }
        }
      }
    }
  }
  JOINT lButtock
  {
    OFFSET 8.77824 4.35084 1.2192
    CHANNELS 3 Zrotation Xrotation Yrotation
    JOINT lThigh
    {
      OFFSET 0 -1.70687 -2.19456
      CHANNELS 3 Zrotation Xrotation Yrotation
      JOINT lShin
      {
        OFFSET 0 -36.8199 0.73152
        CHANNELS 3 Zrotation Xrotation Yrotation
        JOINT lFoot
        {
          OFFSET -0.73152 -45.1104 -5.12064
          CHANNELS 3 Zrotation Xrotation Yrotation
          End Site
          {
            OFFSET 1.1221 -3.69964 12.103
          }
        }
      }
    }
  }
}
MOTION
Frames:	6
Frame Time:	0.00833333
-56.5582 71.0883 0.188628 -329.968 71.6199 -312.311 -4.04692 33.0793 -3.56218 3.38134 -7.55455 -0.863334 -12.4691 -12.2173 -7.75204 10.8305 -5.75947 -8.86419 -0.0 0.0 0.0 -0.0 0.0 0.0 2.04949e-13 1.0447e-12 -3.9933e-13 64.605 35.6274 18.7058 -15.0185 -7.80718 27.6252 -3.91829 -47.6313 -8.86333 -1.13572e-09 4.32257e-10 -2.06287e-09 -1.88345e-09 7.90383e-10 -3.58943e-09 -1.13572e-09 4.32255e-10 -2.06289e-09 7.73091 5.47488 0.417314 -1.13573e-09 4.32254e-10 -2.06288e-09 2.90554 0.965183 0.102902 -1.13572e-09 4.32253e-10 -2.06287e-09 10.2786 0.731801 0.0259123 -1.13573e-09 4.32257e-10 -2.06287e-09 2.22167 -0.733487 -0.20892 2.04903e-13 1.04468e-12 -3.99582e-13 21.4185 50.7077 -115.959 21.5657 -15.1187 -42.6305 0.000446049 0.576033 -0.0809572 -2.43021e-09 -7.35384e-09 -3.10478e-10 -4.19784e-09 -1.27038e-08 -5.30633e-10 -2.43021e-09 -7.35384e-09 -3.10465e-10 -7.73091 5.47488 -0.417314 -2.43021e-09 -7.35384e-09 -3.10473e-10 -2.90554 0.965183 -0.102902 -2.43021e-09 -7.35385e-09 -3.10473e-10 -10.2786 0.731801 -0.0259123 -2.4302e-09 -7.35385e-09 -3.10474e-10 -2.22167 -0.733487 0.20892 -2.03217e-16 0.0 -3.88251e-19 -38.6419 -49.9666 -26.0577 -1.18417 64.733 2.56508 -5.79774 -22.1428 -13.3329 2.03217e-16 0.0 3.88251e-19 25.0588 -59.2382 31.7468 0.858456 57.1371 -1.51003 1.04154 -6.60165 5.11623
-56.7436 71.2967 0.550665 -329.464 71.647 -311.866 -3.69719 32.7515 -3.67703 3.11391 -7.38109 -0.887382 -11.2862 -12.7722 -6.60102 8.80048 -5.13667 -7.17628 -0.0 0.0 0.0 -0.0 0.0 0.0 5.45915e-13 1.13694e-14 -4.21119e-13 64.3273 35.9145 19.0631 -14.8984 -7.7032 27.3788 -3.7764 -47.0056 -8.67005 -3.14977e-09 3.33131e-10 -2.94349e-10 -5.42027e-09 6.5277e-10 -6.11351e-10 -3.14977e-09 3.33127e-10 -2.94369e-10 7.73091 5.47488 0.417314 -3.14977e-09 3.33126e-10 -2.94353e-10 2.90554 0.965183 0.102902 -3.14976e-09 3.33125e-10 -2.94351e-10 10.2786 0.731801 0.0259123 -3.14978e-09 3.3313e-10 -2.94345e-10 2.22167 -0.733487 -0.20892 5.45839e-13 1.13606e-14 -4.21401e-13 20.9442 50.8968 -115.272 21.6283 -15.209 -42.7956 0.000218524 0.348623 -0.048995 -4.82621e-09 -1.37114e-08 4.11359e-10 -8.33987e-09 -2.36924e-08 7.21116e-10 -4.82621e-09 -1.37114e-08 4.11374e-10 -7.73091 5.47488 -0.417314 -4.82621e-09 -1.37114e-08 4.11362e-10 -2.90554 0.965183 -0.102902 -4.82621e-09 -1.37114e-08 4.11361e-10 -10.2786 0.731801 -0.0259123 -4.82621e-09 -1.37114e-08 4.11359e-10 -2.22167 -0.733487 0.20892 -2.03217e-16 0.0 -3.88251e-19 -38.379 -50.001 -26.0706 -1.17545 64.6235 2.55559 -6.01273 -22.1179 -13.7778 2.03217e-16 0.0 3.88251e-19 24.9363 -58.8644 31.6807 0.819246 56.311 -1.45807 0.967036 -6.16736 4.94071
-56.9524 71.4686 0.877761 -328.808 71.7371 -311.179 -3.42173 32.4456 -3.70237 2.82804 -7.23053 -0.893324 -9.92163 -13.2029 -5.33963 6.58074 -4.62321 -5.37956 -0.0 0.0 0.0 -0.0 0.0 0.0 6.96595e-13 -5.49043e-13 -4.08552e-13 64.1453 36.1336 19.3087 -14.8354 -7.64866 27.2506 -3.62974 -46.339 -8.46866 -4.09259e-09 2.64062e-10 6.70579e-10 -7.08197e-09 5.49797e-10 1.01821e-09 -4.09259e-09 2.64057e-10 6.70556e-10 7.73091 5.47488 0.417314 -4.09259e-09 2.64056e-10 6.70575e-10 2.90554 0.965183 0.102902 -4.09258e-09 2.64056e-10 6.70575e-10 10.2786 0.731801 0.0259123 -4.0926e-09 2.64062e-10 6.70582e-10 2.22167 -0.733487 -0.20892 6.96484e-13 -5.49043e-13 -4.0885e-13 20.4686 51.06 -114.589 21.6828 -15.2881 -42.9405 1.18802e-05 0.0984326 -0.0138338 -5.92216e-09 -1.65486e-08 7.63626e-10 -1.02346e-08 -2.85964e-08 1.33191e-09 -5.92217e-09 -1.65486e-08 7.63642e-10 -7.73091 5.47488 -0.417314 -5.92216e-09 -1.65486e-08 7.63626e-10 -2.90554 0.965183 -0.102902 -5.92216e-09 -1.65486e-08 7.63626e-10 -10.2786 0.731801 -0.0259123 -5.92216e-09 -1.65486e-08 7.63623e-10 -2.22167 -0.733487 0.20892 -2.03217e-16 0.0 -3.88251e-19 -38.1394 -50.0199 -26.0336 -1.16731 64.517 2.54553 -6.18655 -22.1088 -14.1312 2.03217e-16 0.0 3.88251e-19 24.7451 -58.5042 31.5567 0.784129 55.5309 -1.41152 0.910443 -5.79362 4.81517
-57.1343 71.603 1.15737 -328.088 71.7156 -310.355 -3.24774 32.1576 -3.60027 2.50141 -7.1075 -0.874049 -8.3235 -13.5151 -3.94548 4.14656 -4.20142 -3.4637 -0.0 0.0 0.0 -0.0 0.0 0.0 5.41127e-13 -4.08028e-13 -3.30536e-13 64.1128 36.2773 19.3947 -14.8633 -7.67264 27.3078 -3.4852 -45.6556 -8.26758 -3.35693e-09 2.4108e-10 3.85618e-10 -5.80625e-09 4.99938e-10 5.50455e-10 -3.35693e-09 2.41076e-10 3.85598e-10 7.73091 5.47488 0.417314 -3.35693e-09 2.41075e-10 3.85615e-10 2.90554 0.965183 0.102902 -3.35693e-09 2.41075e-10 3.85615e-10 10.2786 0.731801 0.0259123 -3.35694e-09 2.4108e-10 3.85622e-10 2.22167 -0.733487 -0.20892 5.40964e-13 -4.08027e-13 -3.30832e-13 20.0209 51.1975 -113.945 21.7266 -15.3519 -43.0572 0.000105092 -0.153647 0.0215992 -4.95239e-09 -1.37385e-08 5.04948e-10 -8.55836e-09 -2.37398e-08 8.83175e-10 -4.9524e-09 -1.37385e-08 5.04966e-10 -7.73091 5.47488 -0.417314 -4.95239e-09 -1.37385e-08 5.04945e-10 -2.90554 0.965183 -0.102902 -4.95239e-09 -1.37385e-08 5.04946e-10 -10.2786 0.731801 -0.0259123 -4.95239e-09 -1.37385e-08 5.04942e-10 -2.22167 -0.733487 0.20892 -2.03217e-16 0.0 -3.88251e-19 -37.9298 -50.0244 -25.917 -1.16001 64.4161 2.53503 -6.31436 -22.105 -14.3877 2.03217e-16 0.0 3.88251e-19 24.4503 -58.157 31.3563 0.752482 54.7996 -1.37018 0.877302 -5.51076 4.76088
-57.2746 71.769 1.4208 -327.342 71.6418 -309.624 -3.13329 31.8699 -3.40627 2.12396 -6.99489 -0.837014 -6.52157 -13.7484 -2.42562 1.5231 -3.84711 -1.41687 -0.0 0.0 0.0 -0.0 0.0 0.0 1.98509e-13 1.12437e-13 -2.02037e-13 64.2017 36.3588 19.3727 -14.9545 -7.75135 27.4943 -3.33927 -44.9346 -8.06143 -1.58894e-09 2.32265e-10 -5.86292e-10 -2.727e-09 4.57869e-10 -1.06654e-09 -1.58893e-09 2.32263e-10 -5.86308e-10 7.73091 5.47488 0.417314 -1.58894e-09 2.32262e-10 -5.86296e-10 2.90554 0.965183 0.102902 -1.58893e-09 2.32262e-10 -5.86296e-10 10.2786 0.731801 0.0259123 -1.58895e-09 2.32266e-10 -5.86287e-10 2.22167 -0.733487 -0.20892 1.98281e-13 1.12437e-13 -2.02319e-13 19.6037 51.3093 -113.323 21.7637 -15.4064 -43.1561 0.000564197 -0.429419 0.0603681 -2.69254e-09 -7.36944e-09 -1.12149e-10 -4.65214e-09 -1.27319e-08 -1.87294e-10 -2.69255e-09 -7.36943e-09 -1.12129e-10 -7.73091 5.47488 -0.417314 -2.69254e-09 -7.36943e-09 -1.12155e-10 -2.90554 0.965183 -0.102902 -2.69255e-09 -7.36943e-09 -1.12153e-10 -10.2786 0.731801 -0.0259123 -2.69254e-09 -7.36944e-09 -1.12158e-10 -2.22167 -0.733487 0.20892 -2.03217e-16 0.0 -3.88251e-19 -37.7334 -50.0198 -25.7396 -1.15262 64.3116 2.52391 -6.42187 -22.1016 -14.6022 2.03217e-16 0.0 3.88251e-19 24.0857 -57.8276 31.1034 0.723123 54.0978 -1.33231 0.85999 -5.28995 4.75695
-57.401 71.9062 1.68149 -326.717 71.6106 -309.085 -3.04252 31.6043 -3.18229 1.75296 -6.89513 -0.792678 -4.63579 -13.8492 -0.82946 -1.22062 -3.62309 0.733751 -0.0 0.0 0.0 -0.0 0.0 0.0 -1.59819e-13 7.39687e-13 -8.17886e-14 64.3202 36.388 19.3062 -15.0545 -7.83794 27.7005 -3.18342 -44.1374 -7.83898 3.29688e-10 2.25492e-10 -1.6632e-09 6.16055e-10 4.16016e-10 -2.85903e-09 3.29693e-10 2.25492e-10 -1.66321e-09 7.73091 5.47488 0.417314 3.29687e-10 2.25491e-10 -1.66321e-09 2.90554 0.965183 0.102902 3.29692e-10 2.25491e-10 -1.6632e-09 10.2786 0.731801 0.0259123 3.29682e-10 2.25494e-10 -1.66319e-09 2.22167 -0.733487 -0.20892 -1.60102e-13 7.39685e-13 -8.2053e-14 19.1548 51.3953 -112.661 21.7979 -15.4568 -43.2471 0.00110978 -0.759537 0.10677 -2.83662e-10 -6.60551e-10 -7.33969e-10 -4.88356e-10 -1.13726e-09 -1.26608e-09 -2.83669e-10 -6.60545e-10 -7.33947e-10 -7.73091 5.47488 -0.417314 -2.8366e-10 -6.60545e-10 -7.33977e-10 -2.90554 0.965183 -0.102902 -2.83668e-10 -6.60544e-10 -7.33975e-10 -10.2786 0.731801 -0.0259123 -2.83661e-10 -6.60549e-10 -7.33979e-10 -2.22167 -0.733487 0.20892 -2.03217e-16 0.0 -3.88251e-19 -37.5483 -49.999 -25.5542 -1.14528 64.2045 2.51204 -6.50142 -22.128 -14.7461 2.03217e-16 0.0 3.88251e-19 23.7104 -57.512 30.8272 0.696375 53.4338 -1.29783 0.847297 -5.08505 4.77038
